<svg id="Capa_1" enable-background="new 0 0 512 512" height="512" viewBox="0 0 512 512" width="512" xmlns="http://www.w3.org/2000/svg"><g><path d="m346 212v75h-153.5c-7.15-7.96-11.5-18.49-11.5-30 0-24.81 20.19-45 45-45z" fill="#fabe2c"/><path d="m271 212h75v75h-75z" fill="#ff9100"/><path d="m316 242v30h-90c-8.27 0-15-6.73-15-15s6.73-15 15-15z" fill="#f0f7ff"/><path d="m271 242h45v30h-45z" fill="#dfe7f4"/><g><path d="m481 482v14.573c0 8.074-6.201 15.024-14.265 15.41-8.614.411-15.735-6.46-15.735-14.983v-15c0-8.284 6.716-15 15-15 8.284 0 15 6.716 15 15z" fill="#29376d"/></g><g><path d="m46 512c-8.284 0-15-6.716-15-15v-210c0-8.284 6.716-15 15-15s15 6.716 15 15v210c0 8.284-6.716 15-15 15z" fill="#47568c"/></g><g><path d="m301 482v14.573c0 8.074-6.201 15.024-14.265 15.41-8.614.411-15.735-6.46-15.735-14.983v-15c0-8.284 6.716-15 15-15 8.284 0 15 6.716 15 15z" fill="#29376d"/></g><path d="m481 291h-210v86l105 15 105-15z" fill="#fabe2c"/><path d="m271 377h210v105h-210z" fill="#ff9100"/><g><path d="m105 0c-57.9 0-105 47.1-105 105s47.1 105 105 105 105-47.1 105-105-47.1-105-105-105z" fill="#ff7b4a"/><path d="m210 105c0 57.9-47.1 105-105 105v-210c57.9 0 105 47.1 105 105z" fill="#ff435b"/><circle cx="105" cy="105" fill="#f0f7ff" r="75"/><path d="m180 105c0 41.35-33.65 75-75 75v-150c41.35 0 75 33.65 75 75z" fill="#dfe7f4"/></g><g><path d="m150 105c0 8.28-6.72 15-15 15h-30c-8.28 0-15-6.72-15-15v-30c0-8.28 6.72-15 15-15s15 6.72 15 15v15h15c8.28 0 15 6.72 15 15z" fill="#61729b"/></g><path d="m150 105c0 8.28-6.72 15-15 15h-30v-60c8.28 0 15 6.72 15 15v15h15c8.28 0 15 6.72 15 15z" fill="#47568c"/><path d="m391 167v120h-90v-120c0-24.81 20.19-45 45-45s45 20.19 45 45z" fill="#7ed8f6"/><path d="m391 167v120h-45v-165c24.81 0 45 20.19 45 45z" fill="#6aa9ff"/><path d="m361 167v120h-30v-120c0-8.27 6.73-15 15-15s15 6.73 15 15z" fill="#f0f7ff"/><path d="m361 167v120h-15v-135c8.27 0 15 6.73 15 15z" fill="#dfe7f4"/><path d="m481 167v120h-90v-120c0-24.81 20.19-45 45-45s45 20.19 45 45z" fill="#ff7b4a"/><path d="m481 167v120h-45v-165c24.81 0 45 20.19 45 45z" fill="#ff435b"/><path d="m451 167v120h-30v-120c0-8.27 6.73-15 15-15s15 6.73 15 15z" fill="#f0f7ff"/><path d="m451 167v120h-15v-135c8.27 0 15 6.73 15 15z" fill="#dfe7f4"/><g><path d="m512 287c0 8.28-6.72 15-15 15h-482c-8.28 0-15-6.72-15-15s6.72-15 15-15h482c8.28 0 15 6.72 15 15z" fill="#61729b"/></g><path d="m512 287c0 8.28-6.72 15-15 15h-226v-30h226c8.28 0 15 6.72 15 15z" fill="#47568c"/></g></svg>